<?xml version="1.0" encoding="UTF-8"?>
<svg width="242px" height="76px" viewBox="0 0 242 76" version="1.1" xmlns="http://www.w3.org/2000/svg" xmlns:xlink="http://www.w3.org/1999/xlink">
    <!-- Generator: Sketch 51.3 (57544) - http://www.bohemiancoding.com/sketch -->
    <title>Logo</title>
    <desc>Created with Sketch.</desc>
    <defs></defs>
    <g id="Front-page" stroke="none" stroke-width="1" fill="none" fill-rule="evenodd">
        <g id="Desktop-HD" transform="translate(-969.000000, -21.000000)" fill="#FFFFFF">
            <path d="M999.332031,56.7109375 L999.332031,53.078125 C998.03515,54.9218842 996.335948,56.3242139 994.234375,57.2851562 C992.132802,58.2460986 989.746107,58.7265625 987.074219,58.7265625 C981.917943,58.7265625 977.625017,56.9843924 974.195312,53.5 C970.765608,50.0156076 969.050781,45.6250265 969.050781,40.328125 C969.050781,35.1718492 970.863263,30.816424 974.488281,27.2617188 C978.113299,23.7070135 982.582005,21.9296875 987.894531,21.9296875 C991.957052,21.9296875 995.476548,22.7812415 998.453125,24.484375 C1001.4297,26.1875085 1003.62109,28.6093593 1005.02734,31.75 C1005.3086,32.4062533 1005.32422,32.9296855 1005.07422,33.3203125 C1004.82422,33.7109395 1004.3086,33.9765618 1003.52734,34.1171875 L997.902344,35.125 C997.433591,35.2187505 997.035158,35.210938 996.707031,35.1015625 C996.378905,34.992187 996.027346,34.6953149 995.652344,34.2109375 C994.683589,32.9609312 993.550788,32.0039096 992.253906,31.3398438 C990.957025,30.6757779 989.566414,30.34375 988.082031,30.34375 C985.316392,30.34375 983.031259,31.2929593 981.226562,33.1914062 C979.421866,35.0898532 978.519531,37.4843605 978.519531,40.375 C978.519531,43.3125147 979.445303,45.7187406 981.296875,47.59375 C983.148447,49.4687594 985.425768,50.40625 988.128906,50.40625 C989.738289,50.40625 991.187494,50.1015655 992.476562,49.4921875 C993.765631,48.8828095 994.847652,47.9921934 995.722656,46.8203125 L990.753906,46.8203125 C990.394529,46.8203125 990.093751,46.69922 989.851562,46.4570312 C989.609374,46.2148425 989.488281,45.9140643 989.488281,45.5546875 L989.488281,40.84375 C989.488281,40.4843732 989.609374,40.1796887 989.851562,39.9296875 C990.093751,39.6796863 990.394529,39.5546875 990.753906,39.5546875 L1005.82422,39.5546875 C1006.1836,39.5546875 1006.48437,39.6796863 1006.72656,39.9296875 C1006.96875,40.1796887 1007.08984,40.4843732 1007.08984,40.84375 L1007.08984,56.7109375 C1007.08984,57.0546892 1006.96484,57.347655 1006.71484,57.5898438 C1006.46484,57.8320325 1006.16797,57.953125 1005.82422,57.953125 L1000.59766,57.953125 C1000.23828,57.953125 999.937501,57.8320325 999.695312,57.5898438 C999.453124,57.347655 999.332031,57.0546892 999.332031,56.7109375 Z M1008.96484,45.53125 C1008.96484,41.8749817 1010.30858,38.7617316 1012.99609,36.1914062 C1015.68361,33.6210809 1018.94139,32.3359375 1022.76953,32.3359375 C1026.59768,32.3359375 1029.85546,33.6210809 1032.54297,36.1914062 C1035.23048,38.7617316 1036.57422,41.8749817 1036.57422,45.53125 C1036.57422,49.1875183 1035.23048,52.3007684 1032.54297,54.8710938 C1029.85546,57.4414191 1026.59768,58.7265625 1022.76953,58.7265625 C1018.94139,58.7265625 1015.68361,57.4414191 1012.99609,54.8710938 C1010.30858,52.3007684 1008.96484,49.1875183 1008.96484,45.53125 Z M1017.73047,45.53125 C1017.73047,46.9531321 1018.21875,48.1640575 1019.19531,49.1640625 C1020.17188,50.1640675 1021.36327,50.6640625 1022.76953,50.6640625 C1024.17579,50.6640625 1025.36718,50.1640675 1026.34375,49.1640625 C1027.32032,48.1640575 1027.80859,46.9531321 1027.80859,45.53125 C1027.80859,44.1093679 1027.32032,42.8984425 1026.34375,41.8984375 C1025.36718,40.8984325 1024.17579,40.3984375 1022.76953,40.3984375 C1021.36327,40.3984375 1020.17188,40.8984325 1019.19531,41.8984375 C1018.21875,42.8984425 1017.73047,44.1093679 1017.73047,45.53125 Z M1074.09766,48.90625 C1072.6914,52.0468907 1070.50001,54.4687415 1067.52344,56.171875 C1064.54686,57.8750085 1061.02736,58.7265625 1056.96484,58.7265625 C1051.65232,58.7265625 1047.18361,56.9492365 1043.55859,53.3945312 C1039.93358,49.839826 1038.12109,45.4844008 1038.12109,40.328125 C1038.12109,35.1718492 1039.93358,30.816424 1043.55859,27.2617188 C1047.18361,23.7070135 1051.65232,21.9296875 1056.96484,21.9296875 C1061.02736,21.9296875 1064.54686,22.7812415 1067.52344,24.484375 C1070.50001,26.1875085 1072.6914,28.6093593 1074.09766,31.75 C1074.37891,32.4062533 1074.39453,32.9296855 1074.14453,33.3203125 C1073.89453,33.7109395 1073.37891,33.9765618 1072.59766,34.1171875 L1066.97266,35.125 C1066.5039,35.2187505 1066.08203,35.1953132 1065.70703,35.0546875 C1065.33203,34.9140618 1065.00391,34.6562519 1064.72266,34.28125 C1063.72265,32.9531184 1062.59766,31.964847 1061.34766,31.3164062 C1060.09765,30.6679655 1058.69923,30.34375 1057.15234,30.34375 C1054.41796,30.34375 1052.14063,31.3007717 1050.32031,33.2148438 C1048.49999,35.1289158 1047.58984,37.4999859 1047.58984,40.328125 C1047.58984,43.1562641 1048.49999,45.5273342 1050.32031,47.4414062 C1052.14063,49.3554783 1054.41796,50.3125 1057.15234,50.3125 C1058.69923,50.3125 1060.09765,49.9882845 1061.34766,49.3398438 C1062.59766,48.691403 1063.72265,47.7031316 1064.72266,46.375 C1065.00391,45.9999981 1065.33203,45.7421882 1065.70703,45.6015625 C1066.08203,45.4609368 1066.5039,45.4374995 1066.97266,45.53125 L1072.59766,46.5390625 C1073.37891,46.6796882 1073.89453,46.9453105 1074.14453,47.3359375 C1074.39453,47.7265645 1074.37891,48.2499967 1074.09766,48.90625 Z M1084.15234,42.296875 L1092.42578,42.296875 C1092.25391,41.3281202 1091.78907,40.5390655 1091.03125,39.9296875 C1090.27343,39.3203095 1089.38672,39.015625 1088.37109,39.015625 C1087.37109,39.015625 1086.47657,39.3203095 1085.6875,39.9296875 C1084.89843,40.5390655 1084.38672,41.3281202 1084.15234,42.296875 Z M1099.83203,53.921875 C1098.83203,55.3750073 1097.33985,56.5390581 1095.35547,57.4140625 C1093.37108,58.2890669 1091.19923,58.7265625 1088.83984,58.7265625 C1084.85545,58.7265625 1081.58595,57.4882936 1079.03125,55.0117188 C1076.47655,52.5351439 1075.19922,49.4140813 1075.19922,45.6484375 C1075.19922,41.742168 1076.39843,38.5468874 1078.79688,36.0625 C1081.19532,33.5781126 1084.33982,32.3359375 1088.23047,32.3359375 C1091.98049,32.3359375 1095.02733,33.5273318 1097.37109,35.9101562 C1099.71486,38.2929807 1100.88672,41.2187327 1100.88672,44.6875 L1100.88672,46.1171875 C1100.88672,46.6640652 1100.76953,47.1015609 1100.53516,47.4296875 C1100.30078,47.7578141 1099.96485,47.921875 1099.52734,47.921875 L1083.96484,47.921875 C1084.19922,49.0781308 1084.76953,49.9921841 1085.67578,50.6640625 C1086.58204,51.3359409 1087.67577,51.671875 1088.95703,51.671875 C1089.81641,51.671875 1090.60937,51.5156266 1091.33594,51.203125 C1092.0625,50.8906234 1092.76172,50.3984409 1093.43359,49.7265625 C1093.73047,49.429686 1094.03906,49.2656252 1094.35938,49.234375 C1094.67969,49.2031248 1095.01172,49.2968739 1095.35547,49.515625 L1099.57422,52.28125 C1099.8711,52.4687509 1100.03906,52.7187484 1100.07812,53.03125 C1100.11719,53.3437516 1100.03516,53.6406236 1099.83203,53.921875 Z M1116.12109,39.90625 C1114.93359,39.90625 1113.95704,40.27734 1113.19141,41.0195312 C1112.42578,41.7617225 1112.04297,42.7578063 1112.04297,44.0078125 L1112.04297,56.828125 C1112.04297,57.1718767 1111.93359,57.4531239 1111.71484,57.671875 C1111.49609,57.8906261 1111.21485,58 1110.87109,58 L1104.49609,58 C1104.15234,58 1103.87109,57.8906261 1103.65234,57.671875 C1103.43359,57.4531239 1103.32422,57.1718767 1103.32422,56.828125 L1103.32422,34.2109375 C1103.32422,33.8671858 1103.43359,33.5859386 1103.65234,33.3671875 C1103.87109,33.1484364 1104.15234,33.0390625 1104.49609,33.0390625 L1110.87109,33.0390625 C1111.21485,33.0390625 1111.49609,33.1484364 1111.71484,33.3671875 C1111.93359,33.5859386 1112.04297,33.8671858 1112.04297,34.2109375 L1112.04297,36.015625 C1112.83985,34.812494 1113.85156,33.8984406 1115.07812,33.2734375 C1116.30469,32.6484344 1117.71484,32.3359375 1119.30859,32.3359375 C1122.44923,32.3359375 1124.82812,33.2695219 1126.44531,35.1367188 C1128.06251,37.0039156 1128.87109,39.7187322 1128.87109,43.28125 L1128.87109,56.828125 C1128.87109,57.1718767 1128.76172,57.4531239 1128.54297,57.671875 C1128.32422,57.8906261 1128.04297,58 1127.69922,58 L1121.32422,58 C1120.98047,58 1120.69922,57.8906261 1120.48047,57.671875 C1120.26172,57.4531239 1120.15234,57.1718767 1120.15234,56.828125 L1120.15234,44.0078125 C1120.15234,42.7578063 1119.77735,41.7617225 1119.02734,41.0195312 C1118.27734,40.27734 1117.3086,39.90625 1116.12109,39.90625 Z M1142.86328,58.4921875 C1140.12889,58.4921875 1137.94532,57.7773509 1136.3125,56.3476562 C1134.67968,54.9179616 1133.86328,52.9375127 1133.86328,50.40625 L1133.86328,40.2578125 L1131.28516,40.2578125 C1130.97265,40.2578125 1130.70313,40.1406262 1130.47656,39.90625 C1130.25,39.6718738 1130.13672,39.3828142 1130.13672,39.0390625 L1130.13672,37.234375 C1130.13672,36.7031223 1130.1875,36.2734391 1130.28906,35.9453125 C1130.39063,35.6171859 1130.57422,35.304689 1130.83984,35.0078125 L1137.05078,28.1171875 C1137.58203,27.5390596 1138.02344,27.1640634 1138.375,26.9921875 C1138.72656,26.8203116 1139.18359,26.734375 1139.74609,26.734375 L1141.41016,26.734375 C1141.73828,26.734375 1142.01562,26.8476551 1142.24219,27.0742188 C1142.46875,27.3007824 1142.58203,27.5781234 1142.58203,27.90625 L1142.58203,33.0390625 L1148.06641,33.0390625 C1148.39453,33.0390625 1148.67578,33.1523426 1148.91016,33.3789062 C1149.14453,33.6054699 1149.26172,33.8828109 1149.26172,34.2109375 L1149.26172,39.0390625 C1149.26172,39.3828142 1149.14453,39.6718738 1148.91016,39.90625 C1148.67578,40.1406262 1148.39453,40.2578125 1148.06641,40.2578125 L1142.58203,40.2578125 L1142.58203,48.578125 C1142.58203,49.187503 1142.74609,49.667967 1143.07422,50.0195312 C1143.40235,50.3710955 1143.84765,50.546875 1144.41016,50.546875 C1144.73828,50.546875 1145.08984,50.4804694 1145.46484,50.3476562 C1145.83985,50.2148431 1146.26953,50.0078139 1146.75391,49.7265625 C1147.23828,49.4453111 1147.64844,49.3437496 1147.98438,49.421875 C1148.32031,49.5000004 1148.63672,49.7499979 1148.93359,50.171875 L1151.13672,53.4765625 C1151.38672,53.8515644 1151.50391,54.2265606 1151.48828,54.6015625 C1151.47266,54.9765644 1151.32422,55.3046861 1151.04297,55.5859375 C1150.15234,56.492192 1148.97657,57.2031224 1147.51562,57.71875 C1146.05468,58.2343776 1144.50391,58.4921875 1142.86328,58.4921875 Z M1154.37109,33.0390625 L1158.91797,33.0390625 C1159.41797,33.0390625 1159.84375,33.1562488 1160.19531,33.390625 C1160.54688,33.6250012 1160.83203,33.9765602 1161.05078,34.4453125 L1161.75391,36.015625 C1162.67579,34.9218695 1163.625,34.0859404 1164.60156,33.5078125 C1165.57813,32.9296846 1166.53515,32.640625 1167.47266,32.640625 C1168.48829,32.640625 1169.25781,32.863279 1169.78125,33.3085938 C1170.30469,33.7539085 1170.51172,34.3906209 1170.40234,35.21875 L1169.69922,40.9140625 C1169.60547,41.5703158 1169.39453,42.0624984 1169.06641,42.390625 C1168.73828,42.7187516 1168.29297,42.8828125 1167.73047,42.8828125 C1167.54297,42.8828125 1167.34766,42.8632814 1167.14453,42.8242188 C1166.94141,42.7851561 1166.63672,42.710938 1166.23047,42.6015625 C1165.77734,42.4609368 1165.4375,42.3710939 1165.21094,42.3320312 C1164.98437,42.2929686 1164.76172,42.2734375 1164.54297,42.2734375 C1163.74609,42.2734375 1163.10547,42.5078102 1162.62109,42.9765625 C1162.13672,43.4453148 1161.89453,44.0859334 1161.89453,44.8984375 L1161.89453,56.9453125 C1161.89453,57.2265639 1161.77344,57.4726552 1161.53125,57.6835938 C1161.28906,57.8945323 1161.01172,58 1160.69922,58 L1154.34766,58 C1154.0039,58 1153.72266,57.8906261 1153.50391,57.671875 C1153.28516,57.4531239 1153.17578,57.1796891 1153.17578,56.8515625 L1153.17578,34.2109375 C1153.17578,33.8828109 1153.28906,33.6054699 1153.51562,33.3789062 C1153.74219,33.1523426 1154.02734,33.0390625 1154.37109,33.0390625 Z M1189.45703,56.8046875 L1189.45703,56.3828125 C1188.64453,57.1640664 1187.72657,57.749998 1186.70312,58.140625 C1185.67968,58.531252 1184.56641,58.7265625 1183.36328,58.7265625 C1179.80076,58.7265625 1176.8047,57.4531377 1174.375,54.90625 C1171.9453,52.3593623 1170.73047,49.2343935 1170.73047,45.53125 C1170.73047,41.8281065 1171.9453,38.7031377 1174.375,36.15625 C1176.8047,33.6093623 1179.80076,32.3359375 1183.36328,32.3359375 C1184.56641,32.3359375 1185.67968,32.531248 1186.70312,32.921875 C1187.72657,33.312502 1188.64453,33.8906212 1189.45703,34.65625 L1189.45703,34.2109375 C1189.45703,33.8671858 1189.56641,33.5859386 1189.78516,33.3671875 C1190.00391,33.1484364 1190.28515,33.0390625 1190.62891,33.0390625 L1197.00391,33.0390625 C1197.34766,33.0390625 1197.62891,33.1484364 1197.84766,33.3671875 C1198.06641,33.5859386 1198.17578,33.8671858 1198.17578,34.2109375 L1198.17578,56.8046875 C1198.17578,57.1328141 1198.0625,57.4140613 1197.83594,57.6484375 C1197.60937,57.8828137 1197.33985,58 1197.02734,58 L1190.67578,58 C1190.34765,58 1190.0625,57.8828137 1189.82031,57.6484375 C1189.57812,57.4140613 1189.45703,57.1328141 1189.45703,56.8046875 Z M1179.49609,45.53125 C1179.49609,46.9531321 1179.98437,48.1640575 1180.96094,49.1640625 C1181.9375,50.1640675 1183.1289,50.6640625 1184.53516,50.6640625 C1185.94141,50.6640625 1187.13281,50.1640675 1188.10938,49.1640625 C1189.08594,48.1640575 1189.57422,46.9531321 1189.57422,45.53125 C1189.57422,44.1093679 1189.08594,42.8984425 1188.10938,41.8984375 C1187.13281,40.8984325 1185.94141,40.3984375 1184.53516,40.3984375 C1183.1289,40.3984375 1181.9375,40.8984325 1180.96094,41.8984375 C1179.98437,42.8984425 1179.49609,44.1093679 1179.49609,45.53125 Z M1201.41016,56.8046875 L1201.41016,23.875 C1201.41016,23.5312483 1201.51953,23.2500011 1201.73828,23.03125 C1201.95703,22.8124989 1202.23828,22.703125 1202.58203,22.703125 L1208.95703,22.703125 C1209.30078,22.703125 1209.58203,22.8124989 1209.80078,23.03125 C1210.01953,23.2500011 1210.12891,23.5312483 1210.12891,23.875 L1210.12891,56.8046875 C1210.12891,57.1328141 1210.01563,57.4140613 1209.78906,57.6484375 C1209.5625,57.8828137 1209.29297,58 1208.98047,58 L1202.62891,58 C1202.30078,58 1202.01563,57.8828137 1201.77344,57.6484375 C1201.53125,57.4140613 1201.41016,57.1328141 1201.41016,56.8046875 Z M991.897461,71.6816406 L997.954102,71.6816406 C1001.8916,71.6816406 1004.77637,73.7460938 1004.77637,77.3964844 C1004.77637,81.0058594 1001.8916,82.9882812 997.954102,82.9882812 L995.342773,82.9882812 L995.342773,91 L991.897461,91 L991.897461,71.6816406 Z M997.954102,79.7480469 C1000.33301,79.7480469 1001.33105,78.9277344 1001.33105,77.3964844 C1001.33105,75.8242188 1000.30566,74.921875 997.954102,74.921875 L995.342773,74.921875 L995.342773,79.7480469 L997.954102,79.7480469 Z M1010.57324,91.2734375 C1007.77051,91.2734375 1005.61035,89.6601562 1005.61035,86.8027344 C1005.61035,83.8359375 1007.98926,82.8515625 1011.05176,82.8515625 L1014.60645,82.8515625 C1014.60645,81.1152344 1013.67676,79.9667969 1011.91309,79.9667969 C1010.34082,79.9667969 1009.28809,80.8964844 1008.7002,81.8945312 L1006.14355,80.0488281 C1007.45605,78.2578125 1009.19238,77.0546875 1011.88574,77.0546875 C1015.60449,77.0546875 1017.79199,79.3789062 1017.79199,82.7148438 L1017.79199,91 L1015.04395,91 L1014.8252,89.0449219 C1013.64941,90.7539062 1012.2002,91.2734375 1010.57324,91.2734375 Z M1011.05176,88.4570312 C1012.95215,88.4570312 1014.55176,86.9667969 1014.60645,85.2578125 L1011.24316,85.2578125 C1009.72559,85.2578125 1009.02832,86.0507812 1009.02832,86.9121094 C1009.02832,87.8144531 1009.75293,88.4570312 1011.05176,88.4570312 Z M1026.11816,91.2734375 C1023.4248,91.2734375 1021.8252,89.7148438 1021.8252,87.2265625 L1021.8252,80.1308594 L1019.62402,80.1308594 L1019.62402,77.3417969 L1021.87988,77.3417969 L1021.87988,71.6816406 L1025.13379,71.6816406 L1025.13379,77.3417969 L1028.5791,77.3417969 L1028.5791,80.1308594 L1025.13379,80.1308594 L1025.13379,86.6386719 C1025.13379,87.9511719 1025.80371,88.3339844 1026.67871,88.3339844 C1027.37598,88.3339844 1028.12793,88.0605469 1028.5791,87.8417969 L1028.5791,90.8632812 C1028.07324,91.0546875 1027.06152,91.2734375 1026.11816,91.2734375 Z M1036.42676,91.2734375 C1033.7334,91.2734375 1032.13379,89.7148438 1032.13379,87.2265625 L1032.13379,80.1308594 L1029.93262,80.1308594 L1029.93262,77.3417969 L1032.18848,77.3417969 L1032.18848,71.6816406 L1035.44238,71.6816406 L1035.44238,77.3417969 L1038.8877,77.3417969 L1038.8877,80.1308594 L1035.44238,80.1308594 L1035.44238,86.6386719 C1035.44238,87.9511719 1036.1123,88.3339844 1036.9873,88.3339844 C1037.68457,88.3339844 1038.43652,88.0605469 1038.8877,87.8417969 L1038.8877,90.8632812 C1038.38184,91.0546875 1037.37012,91.2734375 1036.42676,91.2734375 Z M1047.51465,91.2734375 C1042.81152,91.2734375 1040.59668,87.8964844 1040.59668,84.21875 C1040.59668,80.6640625 1042.6748,77.0546875 1047.2959,77.0546875 C1052.08105,77.0546875 1053.62598,80.8964844 1053.62598,83.9453125 C1053.62598,84.5058594 1053.57129,85.0664062 1053.50293,85.2578125 L1044.12402,85.2578125 C1044.41113,87.0488281 1045.39551,88.2519531 1047.54199,88.2519531 C1048.77246,88.2519531 1049.86621,87.8691406 1050.82324,86.8027344 L1053.12012,88.8125 C1051.62988,90.4667969 1049.81152,91.2734375 1047.51465,91.2734375 Z M1050.34473,82.8515625 C1050.12598,80.8964844 1049.00488,79.8574219 1047.26855,79.8574219 C1045.2998,79.8574219 1044.43848,81.1425781 1044.12402,82.8515625 L1050.34473,82.8515625 Z M1056.41504,77.3417969 L1059.66895,77.3417969 L1059.66895,79.6386719 C1060.25684,77.984375 1061.80176,77.0546875 1063.33301,77.0546875 C1064.23535,77.0546875 1064.67285,77.2050781 1064.85059,77.2460938 L1064.85059,80.5546875 C1064.52246,80.4316406 1064.23535,80.3085938 1063.33301,80.3085938 C1061.77441,80.3085938 1059.6416,81.7578125 1059.6416,85.2304688 L1059.6416,91 L1056.41504,91 L1056.41504,77.3417969 Z M1067.73535,77.3417969 L1071.04395,77.3417969 L1071.04395,78.9277344 C1072.1377,77.5878906 1073.7373,77.0546875 1075.07715,77.0546875 C1078.65918,77.0546875 1080.02637,79.9394531 1080.02637,82.796875 L1080.02637,91 L1076.73145,91 L1076.73145,83.2207031 C1076.73145,81.4296875 1075.8291,80.1308594 1074.12012,80.1308594 C1072.24707,80.1308594 1071.04395,81.1425781 1071.04395,83.5214844 L1071.04395,91 L1067.73535,91 L1067.73535,77.3417969 Z M1087.72363,91.2734375 C1084.85254,91.2734375 1082.66504,89.5507812 1081.99512,87.4453125 L1084.64746,86.2695312 C1085.0166,87.2539062 1085.74121,88.5117188 1087.55957,88.5117188 C1089.10449,88.5117188 1089.77441,87.609375 1089.77441,86.8847656 C1089.77441,84.5878906 1082.91113,86.1328125 1082.91113,81.3066406 C1082.91113,78.421875 1085.34473,77.0546875 1087.9834,77.0546875 C1090.33496,77.0546875 1092.12598,78.1757812 1093.16504,80.0214844 L1090.58105,81.4296875 C1090.11621,80.5820312 1089.35059,79.6933594 1087.87402,79.6933594 C1086.78027,79.6933594 1086.11035,80.2265625 1086.11035,80.8691406 C1086.11035,82.9335938 1093.05566,81.703125 1093.05566,86.7207031 C1093.05566,89.8789062 1090.30762,91.2734375 1087.72363,91.2734375 Z M1103.26855,71.6816406 L1106.74121,71.6816406 L1106.74121,87.71875 L1114.99902,87.71875 L1114.99902,91 L1103.26855,91 L1103.26855,71.6816406 Z M1118.9502,75.2363281 C1117.95215,75.2363281 1117.17285,74.4570312 1117.17285,73.4589844 C1117.17285,72.4882812 1117.95215,71.6816406 1118.9502,71.6816406 C1119.94824,71.6816406 1120.72754,72.4882812 1120.72754,73.4589844 C1120.72754,74.4570312 1119.94824,75.2363281 1118.9502,75.2363281 Z M1117.2959,77.3417969 L1120.60449,77.3417969 L1120.60449,91 L1117.2959,91 L1117.2959,77.3417969 Z M1131.93848,91.2734375 C1130.5166,91.2734375 1128.99902,90.8085938 1128.04199,89.6328125 L1128.04199,91 L1124.59668,91 L1124.59668,71.6816406 L1128.04199,71.6816406 L1128.04199,78.7089844 C1128.99902,77.5332031 1130.4209,77.0546875 1131.88379,77.0546875 C1135.72559,77.0546875 1137.79004,80.3632812 1137.79004,84.1640625 C1137.79004,87.9511719 1135.72559,91.2734375 1131.93848,91.2734375 Z M1131.10449,88.1972656 C1133.40137,88.1972656 1134.42676,86.4335938 1134.42676,84.1640625 C1134.42676,81.8945312 1133.40137,80.0761719 1131.10449,80.0761719 C1128.80762,80.0761719 1127.74121,81.8671875 1127.74121,84.1640625 C1127.74121,86.4609375 1128.80762,88.1972656 1131.10449,88.1972656 Z M1140.64746,77.3417969 L1143.90137,77.3417969 L1143.90137,79.6386719 C1144.48926,77.984375 1146.03418,77.0546875 1147.56543,77.0546875 C1148.46777,77.0546875 1148.90527,77.2050781 1149.08301,77.2460938 L1149.08301,80.5546875 C1148.75488,80.4316406 1148.46777,80.3085938 1147.56543,80.3085938 C1146.00684,80.3085938 1143.87402,81.7578125 1143.87402,85.2304688 L1143.87402,91 L1140.64746,91 L1140.64746,77.3417969 Z M1155.78223,91.2734375 C1152.97949,91.2734375 1150.81934,89.6601562 1150.81934,86.8027344 C1150.81934,83.8359375 1153.19824,82.8515625 1156.26074,82.8515625 L1159.81543,82.8515625 C1159.81543,81.1152344 1158.88574,79.9667969 1157.12207,79.9667969 C1155.5498,79.9667969 1154.49707,80.8964844 1153.90918,81.8945312 L1151.35254,80.0488281 C1152.66504,78.2578125 1154.40137,77.0546875 1157.09473,77.0546875 C1160.81348,77.0546875 1163.00098,79.3789062 1163.00098,82.7148438 L1163.00098,91 L1160.25293,91 L1160.03418,89.0449219 C1158.8584,90.7539062 1157.40918,91.2734375 1155.78223,91.2734375 Z M1156.26074,88.4570312 C1158.16113,88.4570312 1159.76074,86.9667969 1159.81543,85.2578125 L1156.45215,85.2578125 C1154.93457,85.2578125 1154.2373,86.0507812 1154.2373,86.9121094 C1154.2373,87.8144531 1154.96191,88.4570312 1156.26074,88.4570312 Z M1166.55566,77.3417969 L1169.80957,77.3417969 L1169.80957,79.6386719 C1170.39746,77.984375 1171.94238,77.0546875 1173.47363,77.0546875 C1174.37598,77.0546875 1174.81348,77.2050781 1174.99121,77.2460938 L1174.99121,80.5546875 C1174.66309,80.4316406 1174.37598,80.3085938 1173.47363,80.3085938 C1171.91504,80.3085938 1169.78223,81.7578125 1169.78223,85.2304688 L1169.78223,91 L1166.55566,91 L1166.55566,77.3417969 Z M1181.74512,90.6308594 L1176.39941,77.3417969 L1180.06348,77.3417969 L1183.50879,86.8300781 L1187.00879,77.3417969 L1190.67285,77.3417969 L1182.86621,96.8789062 L1179.22949,96.8789062 L1181.74512,90.6308594 Z" id="Logo"></path>
        </g>
    </g>
</svg>