<?xml version="1.0" encoding="UTF-8"?>
<svg width="155px" height="48px" viewBox="0 0 155 48" version="1.1" xmlns="http://www.w3.org/2000/svg" xmlns:xlink="http://www.w3.org/1999/xlink">
    <!-- Generator: Sketch 51.3 (57544) - http://www.bohemiancoding.com/sketch -->
    <title>LogoSmall</title>
    <desc>Created with Sketch.</desc>
    <defs></defs>
    <g id="Front-page" stroke="none" stroke-width="1" fill="none" fill-rule="evenodd">
        <g id="Desktop-HD-Copy" transform="translate(-47.000000, -24.000000)" fill="#FFFFFF">
            <path d="M66.4691814,46.2750821 L66.4691814,43.9485068 C65.6353578,45.1293122 64.5428644,46.0274113 63.1916683,46.6428311 C61.8404722,47.2582508 60.3059584,47.5659561 58.5880809,47.5659561 C55.2728786,47.5659561 52.512763,46.4502118 50.3076512,44.2186897 C48.1025394,41.9871677 47,39.1752919 47,35.7829781 C47,32.4807257 48.1653263,29.6913649 50.496014,27.4148121 C52.8267017,25.1382593 55.6998339,24 59.1154968,24 C61.7274743,24 63.9903171,24.5453638 65.9040929,25.6361078 C67.8178688,26.7268518 69.2268086,28.2778864 70.1309547,30.2892584 C70.3117839,30.709545 70.3218298,31.0447686 70.1610927,31.2949393 C70.0003557,31.5451099 69.6688404,31.7152234 69.166537,31.8052848 L65.5499708,32.4507218 C65.2485888,32.5107628 64.9924179,32.5057595 64.7814505,32.4357117 C64.5704831,32.3656639 64.34445,32.1755371 64.1033444,31.8653255 C63.4804882,31.0647794 62.7521592,30.4518706 61.9183356,30.0265805 C61.084512,29.6012904 60.1904254,29.3886486 59.236049,29.3886486 C57.4578951,29.3886486 55.9886797,29.9965541 54.8283589,31.2123834 C53.6680381,32.4282127 53.0878864,33.9617357 53.0878864,35.8129984 C53.0878864,37.6942816 53.683107,39.2353096 54.873566,40.4361286 C56.064025,41.6369477 57.5282174,42.2373482 59.2661871,42.2373482 C60.300932,42.2373482 61.2326908,42.042218 62.0614913,41.6519518 C62.8902919,41.2616856 63.5859717,40.6913052 64.1485514,39.9407932 L60.9539179,39.9407932 C60.7228584,39.9407932 60.5294745,39.8632415 60.3737605,39.7081357 C60.2180464,39.5530299 60.1401906,39.3604014 60.1401906,39.1302444 L60.1401906,36.1132016 C60.1401906,35.8830447 60.2180464,35.6879145 60.3737605,35.5278053 C60.5294745,35.3676961 60.7228584,35.2876427 60.9539179,35.2876427 L70.6433016,35.2876427 C70.8743611,35.2876427 71.067745,35.3676961 71.2234591,35.5278053 C71.3791731,35.6879145 71.457029,35.8830447 71.457029,36.1132016 L71.457029,46.2750821 C71.457029,46.4952322 71.3766616,46.6828574 71.2159246,46.8379632 C71.0551875,46.993069 70.8643151,47.0706207 70.6433016,47.0706207 L67.2829088,47.0706207 C67.0518493,47.0706207 66.8584654,46.993069 66.7027513,46.8379632 C66.5470373,46.6828574 66.4691814,46.4952322 66.4691814,46.2750821 Z M72.662551,39.1152343 C72.662551,36.7736371 73.5264999,34.7798071 75.2544235,33.1336843 C76.9823471,31.4875615 79.0769207,30.6645124 81.5382073,30.6645124 C83.9994938,30.6645124 86.0940675,31.4875615 87.8219911,33.1336843 C89.5499147,34.7798071 90.4138635,36.7736371 90.4138635,39.1152343 C90.4138635,41.4568314 89.5499147,43.4506615 87.8219911,45.0967843 C86.0940675,46.7429071 83.9994938,47.5659561 81.5382073,47.5659561 C79.0769207,47.5659561 76.9823471,46.7429071 75.2544235,45.0967843 C73.5264999,43.4506615 72.662551,41.4568314 72.662551,39.1152343 Z M78.2983667,39.1152343 C78.2983667,40.0258554 78.6123016,40.8013727 79.2401808,41.4418096 C79.86806,42.0822464 80.6340612,42.40246 81.5382073,42.40246 C82.4423533,42.40246 83.2083545,42.0822464 83.8362337,41.4418096 C84.4641129,40.8013727 84.7780478,40.0258554 84.7780478,39.1152343 C84.7780478,38.2046132 84.4641129,37.4290958 83.8362337,36.788659 C83.2083545,36.1482222 82.4423533,35.8280085 81.5382073,35.8280085 C80.6340612,35.8280085 79.86806,36.1482222 79.2401808,36.788659 C78.6123016,37.4290958 78.2983667,38.2046132 78.2983667,39.1152343 Z M114.539374,41.2766978 C113.635228,43.2880697 112.226288,44.8391044 110.312512,45.9298483 C108.398736,47.0205923 106.135894,47.5659561 103.523916,47.5659561 C100.108253,47.5659561 97.2351209,46.4276968 94.9044332,44.151144 C92.5737456,41.8745912 91.4084192,39.0852305 91.4084192,35.7829781 C91.4084192,32.4807257 92.5737456,29.6913649 94.9044332,27.4148121 C97.2351209,25.1382593 100.108253,24 103.523916,24 C106.135894,24 108.398736,24.5453638 110.312512,25.6361078 C112.226288,26.7268518 113.635228,28.2778864 114.539374,30.2892584 C114.720203,30.709545 114.730249,31.0447686 114.569512,31.2949393 C114.408775,31.5451099 114.07726,31.7152234 113.574956,31.8052848 L109.95839,32.4507218 C109.657008,32.5107628 109.385768,32.4957528 109.144663,32.4056914 C108.903557,32.3156299 108.692593,32.1505198 108.511764,31.910356 C107.868815,31.0597758 107.145509,30.4268536 106.341824,30.0115703 C105.538138,29.5962871 104.639029,29.3886486 103.644468,29.3886486 C101.886406,29.3886486 100.422214,30.0015574 99.2518472,31.2273935 C98.0814803,32.4532297 97.4963057,33.9717427 97.4963057,35.7829781 C97.4963057,37.5942135 98.0814803,39.1127265 99.2518472,40.3385626 C100.422214,41.5643987 101.886406,42.1773076 103.644468,42.1773076 C104.639029,42.1773076 105.538138,41.969669 106.341824,41.5543858 C107.145509,41.1391025 107.868815,40.5061803 108.511764,39.6556001 C108.692593,39.4154363 108.903557,39.2503262 109.144663,39.1602648 C109.385768,39.0702033 109.657008,39.0551933 109.95839,39.1152343 L113.574956,39.7606713 C114.07726,39.8507327 114.408775,40.0208462 114.569512,40.2710168 C114.730249,40.5211875 114.720203,40.8564111 114.539374,41.2766978 Z M121.003986,37.0438318 L126.323352,37.0438318 C126.212845,36.4234086 125.913979,35.9180715 125.426745,35.5278053 C124.939511,35.1375391 124.369405,34.9424089 123.716411,34.9424089 C123.073462,34.9424089 122.498334,35.1375391 121.991007,35.5278053 C121.483681,35.9180715 121.154677,36.4234086 121.003986,37.0438318 Z M131.085164,44.4888727 C130.442216,45.4195074 129.482831,46.1650048 128.20698,46.725387 C126.93113,47.2857692 125.534747,47.5659561 124.017791,47.5659561 C121.456044,47.5659561 119.353936,46.7729271 117.711404,45.1868453 C116.068872,43.6007634 115.247618,41.60193 115.247618,39.1902851 C115.247618,36.6885787 116.018642,34.6422136 117.560714,33.0511284 C119.102785,31.4600431 121.124526,30.6645124 123.625997,30.6645124 C126.037053,30.6645124 127.996006,31.4275214 129.502917,32.9535623 C131.009827,34.4796032 131.76327,36.3533531 131.76327,38.5748684 L131.76327,39.4904884 C131.76327,39.8407272 131.687926,40.1209142 131.537235,40.3310575 C131.386544,40.5412008 131.170557,40.6462709 130.889267,40.6462709 L120.883434,40.6462709 C121.034125,41.386776 121.400801,41.9721665 121.983473,42.40246 C122.566145,42.8327535 123.269359,43.047897 124.093136,43.047897 C124.64567,43.047897 125.1555,42.9478303 125.622642,42.7476938 C126.089785,42.5475572 126.539339,42.232347 126.97132,41.8020535 C127.162196,41.6119238 127.360602,41.5068537 127.566547,41.48684 C127.772491,41.4668264 127.985967,41.5268664 128.20698,41.666962 L130.919405,43.4381613 C131.11028,43.5582432 131.218274,43.71835 131.243389,43.9184865 C131.268504,44.118623 131.215763,44.3087498 131.085164,44.4888727 Z M141.558137,35.5127951 C140.794636,35.5127951 140.166766,35.7504537 139.674509,36.2257779 C139.182252,36.7011021 138.936127,37.3390276 138.936127,38.1395737 L138.936127,46.3501329 C138.936127,46.5702831 138.865805,46.7504032 138.72516,46.8904988 C138.584515,47.0305943 138.403689,47.1006411 138.182675,47.1006411 L134.0839,47.1006411 C133.862887,47.1006411 133.68206,47.0305943 133.541416,46.8904988 C133.400771,46.7504032 133.330449,46.5702831 133.330449,46.3501329 L133.330449,31.8653255 C133.330449,31.6451753 133.400771,31.4650552 133.541416,31.3249596 C133.68206,31.1848641 133.862887,31.1148173 134.0839,31.1148173 L138.182675,31.1148173 C138.403689,31.1148173 138.584515,31.1848641 138.72516,31.3249596 C138.865805,31.4650552 138.936127,31.6451753 138.936127,31.8653255 L138.936127,33.021108 C139.448476,32.2505825 140.098949,31.665192 140.887566,31.264919 C141.676182,30.8646459 142.582826,30.6645124 143.607525,30.6645124 C145.626784,30.6645124 147.156275,31.2624113 148.196043,32.4582269 C149.235811,33.6540426 149.755687,35.3927024 149.755687,37.6742586 L149.755687,46.3501329 C149.755687,46.5702831 149.685366,46.7504032 149.544721,46.8904988 C149.404076,47.0305943 149.22325,47.1006411 149.002236,47.1006411 L144.903461,47.1006411 C144.682448,47.1006411 144.501621,47.0305943 144.360976,46.8904988 C144.220331,46.7504032 144.15001,46.5702831 144.15001,46.3501329 L144.15001,38.1395737 C144.15001,37.3390276 143.908908,36.7011021 143.426696,36.2257779 C142.944485,35.7504537 142.321638,35.5127951 141.558137,35.5127951 Z M158.751896,47.4158545 C156.993834,47.4158545 155.589917,46.9580491 154.540103,46.0424246 C153.490289,45.1268 152.96539,43.8584539 152.96539,42.2373482 L152.96539,35.7379476 L151.307797,35.7379476 C151.106876,35.7379476 150.933584,35.6628975 150.787916,35.5127951 C150.642248,35.3626927 150.569415,35.1775692 150.569415,34.9574191 L150.569415,33.8016365 C150.569415,33.4614045 150.602064,33.1862209 150.667363,32.9760776 C150.732663,32.7659342 150.850702,32.5658007 151.021486,32.375671 L155.014777,27.9626831 C155.356344,27.5924305 155.640141,27.3522703 155.866177,27.2421952 C156.092214,27.1321202 156.386057,27.0770834 156.747715,27.0770834 L157.817616,27.0770834 C158.028584,27.0770834 158.206899,27.1496318 158.352567,27.2947308 C158.498235,27.4398298 158.571067,27.6174483 158.571067,27.8275916 L158.571067,31.1148173 L162.09722,31.1148173 C162.308187,31.1148173 162.489013,31.1873657 162.639704,31.3324647 C162.790395,31.4775637 162.86574,31.6551821 162.86574,31.8653255 L162.86574,34.9574191 C162.86574,35.1775692 162.790395,35.3626927 162.639704,35.5127951 C162.489013,35.6628975 162.308187,35.7379476 162.09722,35.7379476 L158.571067,35.7379476 L158.571067,41.0665555 C158.571067,41.4568217 158.67655,41.7645269 158.887517,41.9896805 C159.098484,42.2148341 159.384793,42.3274092 159.746451,42.3274092 C159.957419,42.3274092 160.183452,42.2848808 160.424558,42.1998228 C160.665663,42.1147648 160.941926,41.9821763 161.253354,41.8020535 C161.564782,41.6219306 161.828487,41.5568872 162.044478,41.6069214 C162.260468,41.6569555 162.463898,41.8170623 162.654773,42.0872466 L164.071262,44.2036796 C164.231999,44.4438434 164.307343,44.6840036 164.297297,44.9241674 C164.287251,45.1643312 164.191815,45.3744714 164.010986,45.5545943 C163.43836,46.1349901 162.682405,46.5902939 161.743097,46.9205191 C160.80379,47.2507443 159.806733,47.4158545 158.751896,47.4158545 Z M166.150787,31.1148173 L169.074178,31.1148173 C169.395653,31.1148173 169.669404,31.1898674 169.89544,31.3399698 C170.121477,31.4900722 170.304815,31.7152223 170.44546,32.0154271 L170.897531,33.021108 C171.490249,32.3206303 172.100538,31.7852731 172.728417,31.4150206 C173.356296,31.044768 173.971609,30.8596446 174.574373,30.8596446 C175.227367,30.8596446 175.722129,31.0022397 176.058672,31.2874342 C176.395215,31.5726287 176.528324,31.9804007 176.458001,32.5107625 L176.00593,36.1582321 C175.945654,36.5785188 175.810034,36.8937291 175.599067,37.1038724 C175.388099,37.3140157 175.101791,37.4190858 174.740132,37.4190858 C174.619579,37.4190858 174.494005,37.4065775 174.363407,37.3815604 C174.232808,37.3565434 174.036912,37.3090117 173.775715,37.2389639 C173.484379,37.1489025 173.26588,37.0913641 173.120212,37.066347 C172.974544,37.0413299 172.83139,37.0288216 172.690745,37.0288216 C172.178395,37.0288216 171.766513,37.1789217 171.455085,37.4791265 C171.143656,37.7793313 170.987945,38.1896049 170.987945,38.7099599 L170.987945,46.4251837 C170.987945,46.6053066 170.910089,46.7629117 170.754375,46.8980039 C170.598661,47.033096 170.420346,47.1006411 170.219424,47.1006411 L166.135718,47.1006411 C165.914705,47.1006411 165.733878,47.0305943 165.593234,46.8904988 C165.452589,46.7504032 165.382267,46.5752864 165.382267,46.3651431 L165.382267,31.8653255 C165.382267,31.6551821 165.4551,31.4775637 165.600768,31.3324647 C165.746436,31.1873657 165.929774,31.1148173 166.150787,31.1148173 Z M188.709119,46.3351227 L188.709119,46.0649398 C188.186724,46.5652811 187.596526,46.9405314 186.938509,47.190702 C186.280491,47.4408727 185.56472,47.5659561 184.791172,47.5659561 C182.500669,47.5659561 180.574365,46.7504121 179.012201,45.1192995 C177.450038,43.488187 176.668968,41.4868519 176.668968,39.1152343 C176.668968,36.7436166 177.450038,34.7422816 179.012201,33.111169 C180.574365,31.4800565 182.500669,30.6645124 184.791172,30.6645124 C185.56472,30.6645124 186.280491,30.7895959 186.938509,31.0397665 C187.596526,31.2899371 188.186724,31.6601841 188.709119,32.1505186 L188.709119,31.8653255 C188.709119,31.6451753 188.779441,31.4650552 188.920086,31.3249596 C189.06073,31.1848641 189.241557,31.1148173 189.46257,31.1148173 L193.561346,31.1148173 C193.782359,31.1148173 193.963186,31.1848641 194.10383,31.3249596 C194.244475,31.4650552 194.314797,31.6451753 194.314797,31.8653255 L194.314797,46.3351227 C194.314797,46.5452661 194.241964,46.7253862 194.096296,46.8754886 C193.950628,47.025591 193.777336,47.1006411 193.576415,47.1006411 L189.492709,47.1006411 C189.281741,47.1006411 189.098403,47.025591 188.942689,46.8754886 C188.786975,46.7253862 188.709119,46.5452661 188.709119,46.3351227 Z M182.304783,39.1152343 C182.304783,40.0258554 182.618718,40.8013727 183.246597,41.4418096 C183.874477,42.0822464 184.640478,42.40246 185.544624,42.40246 C186.44877,42.40246 187.214771,42.0822464 187.84265,41.4418096 C188.470529,40.8013727 188.784464,40.0258554 188.784464,39.1152343 C188.784464,38.2046132 188.470529,37.4290958 187.84265,36.788659 C187.214771,36.1482222 186.44877,35.8280085 185.544624,35.8280085 C184.640478,35.8280085 183.874477,36.1482222 183.246597,36.788659 C182.618718,37.4290958 182.304783,38.2046132 182.304783,39.1152343 Z M196.394322,46.3351227 L196.394322,25.2458435 C196.394322,25.0256934 196.464644,24.8455732 196.605289,24.7054777 C196.745934,24.5653821 196.92676,24.4953354 197.147774,24.4953354 L201.246549,24.4953354 C201.467562,24.4953354 201.648389,24.5653821 201.789034,24.7054777 C201.929679,24.8455732 202,25.0256934 202,25.2458435 L202,46.3351227 C202,46.5452661 201.927167,46.7253862 201.781499,46.8754886 C201.635831,47.025591 201.462539,47.1006411 201.261618,47.1006411 L197.177912,47.1006411 C196.966944,47.1006411 196.783606,47.025591 196.627892,46.8754886 C196.472178,46.7253862 196.394322,46.5452661 196.394322,46.3351227 Z M61.6891608,55.8628238 L65.5832483,55.8628238 C68.1148446,55.8628238 69.9695905,57.184969 69.9695905,59.5228019 C69.9695905,61.834367 68.1148446,63.1039767 65.5832483,63.1039767 L63.9043076,63.1039767 L63.9043076,68.2349507 L61.6891608,68.2349507 L61.6891608,55.8628238 Z M65.5832483,61.0288216 C67.1127544,61.0288216 67.7544437,60.5034659 67.7544437,59.5228019 C67.7544437,58.5158701 67.0951739,57.9379788 65.5832483,57.9379788 L63.9043076,57.9379788 L63.9043076,61.0288216 L65.5832483,61.0288216 Z M73.6966629,68.4100693 C71.8946586,68.4100693 70.5057967,67.3768698 70.5057967,65.5468807 C70.5057967,63.6468442 72.0353028,63.0164174 74.0043222,63.0164174 L76.2897911,63.0164174 C76.2897911,61.9044144 75.6920531,61.1689165 74.5581089,61.1689165 C73.5472284,61.1689165 72.870378,61.7643196 72.4923966,62.4035024 L70.8486171,61.221452 C71.6924825,60.0744254 72.8088462,59.3039037 74.5405284,59.3039037 C76.9314805,59.3039037 78.3379229,60.7924115 78.3379229,62.9288581 L78.3379229,68.2349507 L76.5710796,68.2349507 L76.4304354,66.982853 C75.6744726,68.077344 74.7427045,68.4100693 73.6966629,68.4100693 Z M74.0043222,66.606348 C75.2261691,66.606348 76.2546301,65.6519518 76.2897911,64.5574608 L74.1273859,64.5574608 C73.1516665,64.5574608 72.703363,65.0653046 72.703363,65.6169281 C72.703363,66.1948194 73.169247,66.606348 74.0043222,66.606348 Z M83.6911943,68.4100693 C81.9595121,68.4100693 80.9310511,67.4118935 80.9310511,65.8183145 L80.9310511,61.2739876 L79.5158184,61.2739876 L79.5158184,59.4877782 L80.9662122,59.4877782 L80.9662122,55.8628238 L83.0582953,55.8628238 L83.0582953,59.4877782 L85.2734421,59.4877782 L85.2734421,61.2739876 L83.0582953,61.2739876 L83.0582953,65.4418096 C83.0582953,66.2823787 83.4890182,66.5275447 84.0515952,66.5275447 C84.4998987,66.5275447 84.9833633,66.3524261 85.2734421,66.2123313 L85.2734421,68.1473915 C84.9482022,68.2699745 84.2977226,68.4100693 83.6911943,68.4100693 Z M90.3190542,68.4100693 C88.587372,68.4100693 87.558911,67.4118935 87.558911,65.8183145 L87.558911,61.2739876 L86.1436783,61.2739876 L86.1436783,59.4877782 L87.594072,59.4877782 L87.594072,55.8628238 L89.6861551,55.8628238 L89.6861551,59.4877782 L91.9013019,59.4877782 L91.9013019,61.2739876 L89.6861551,61.2739876 L89.6861551,65.4418096 C89.6861551,66.2823787 90.1168781,66.5275447 90.6794551,66.5275447 C91.1277586,66.5275447 91.6112232,66.3524261 91.9013019,66.2123313 L91.9013019,68.1473915 C91.5760621,68.2699745 90.9255825,68.4100693 90.3190542,68.4100693 Z M97.4479592,68.4100693 C94.424108,68.4100693 93.0000851,66.247355 93.0000851,63.8920102 C93.0000851,61.6154688 94.3362054,59.3039037 97.307315,59.3039037 C100.383908,59.3039037 101.377208,61.7643196 101.377208,63.7168916 C101.377208,64.0758847 101.342047,64.4348778 101.298095,64.5574608 L95.2679735,64.5574608 C95.452569,65.7044874 96.0854681,66.4750091 97.4655397,66.4750091 C98.2566636,66.4750091 98.9598848,66.2298431 99.5752034,65.5468807 L101.051968,66.8340022 C100.093829,67.8934695 98.9247237,68.4100693 97.4479592,68.4100693 Z M99.2675441,63.0164174 C99.1268998,61.7643196 98.4060981,61.098869 97.2897344,61.098869 C96.0239363,61.098869 95.4701496,61.9219263 95.2679735,63.0164174 L99.2675441,63.0164174 Z M103.170422,59.4877782 L105.262505,59.4877782 L105.262505,60.9587742 C105.640486,59.8993068 106.633786,59.3039037 107.618296,59.3039037 C108.198453,59.3039037 108.479742,59.4002189 108.594015,59.4264867 L108.594015,61.5454214 C108.383049,61.466618 108.198453,61.3878147 107.618296,61.3878147 C106.616206,61.3878147 105.244924,62.3159431 105.244924,64.5399489 L105.244924,68.2349507 L103.170422,68.2349507 L103.170422,59.4877782 Z M110.448761,59.4877782 L112.576005,59.4877782 L112.576005,60.5034659 C113.279227,59.6453849 114.307688,59.3039037 115.169134,59.3039037 C117.472183,59.3039037 118.35121,61.1514046 118.35121,62.9813937 L118.35121,68.2349507 L116.232756,68.2349507 L116.232756,63.2528274 C116.232756,62.1058008 115.652598,61.2739876 114.553815,61.2739876 C113.349549,61.2739876 112.576005,61.9219263 112.576005,63.4454579 L112.576005,68.2349507 L110.448761,68.2349507 L110.448761,59.4877782 Z M123.300129,68.4100693 C121.454173,68.4100693 120.047731,67.3068223 119.617008,65.9584093 L121.322319,65.2053995 C121.559656,65.8358263 122.02554,66.6413718 123.194646,66.6413718 C124.187946,66.6413718 124.618669,66.0634805 124.618669,65.5994163 C124.618669,64.1284203 120.205956,65.1178402 120.205956,62.0269974 C120.205956,60.1794965 121.770623,59.3039037 123.467144,59.3039037 C124.979069,59.3039037 126.130594,60.0218898 126.798654,61.2039402 L125.137294,62.1058008 C124.838425,61.5629332 124.34617,60.9937979 123.396822,60.9937979 C122.693601,60.9937979 122.262878,61.3352791 122.262878,61.7468077 C122.262878,63.0689529 126.728332,62.2809194 126.728332,65.4943451 C126.728332,67.5169646 124.961489,68.4100693 123.300129,68.4100693 Z M133.29466,55.8628238 L135.527388,55.8628238 L135.527388,66.1335279 L140.836708,66.1335279 L140.836708,68.2349507 L133.29466,68.2349507 L133.29466,55.8628238 Z M143.377094,58.1393652 C142.735405,58.1393652 142.23436,57.6402773 142.23436,57.0010945 C142.23436,56.3794236 142.735405,55.8628238 143.377094,55.8628238 C144.018784,55.8628238 144.519829,56.3794236 144.519829,57.0010945 C144.519829,57.6402773 144.018784,58.1393652 143.377094,58.1393652 Z M142.313472,59.4877782 L144.440716,59.4877782 L144.440716,68.2349507 L142.313472,68.2349507 L142.313472,59.4877782 Z M151.727846,68.4100693 C150.813659,68.4100693 149.837939,68.1123677 149.222621,67.3593579 L149.222621,68.2349507 L147.007474,68.2349507 L147.007474,55.8628238 L149.222621,55.8628238 L149.222621,60.363371 C149.837939,59.6103612 150.752127,59.3039037 151.692685,59.3039037 C154.16275,59.3039037 155.49008,61.4228384 155.49008,63.8569865 C155.49008,66.2823787 154.16275,68.4100693 151.727846,68.4100693 Z M151.19164,66.4399854 C152.668404,66.4399854 153.327674,65.3104706 153.327674,63.8569865 C153.327674,62.4035024 152.668404,61.2389639 151.19164,61.2389639 C149.714875,61.2389639 149.029235,62.3859905 149.029235,63.8569865 C149.029235,65.3279825 149.714875,66.4399854 151.19164,66.4399854 Z M157.327245,59.4877782 L159.419328,59.4877782 L159.419328,60.9587742 C159.797309,59.8993068 160.790609,59.3039037 161.775119,59.3039037 C162.355277,59.3039037 162.636565,59.4002189 162.750839,59.4264867 L162.750839,61.5454214 C162.539872,61.466618 162.355277,61.3878147 161.775119,61.3878147 C160.773029,61.3878147 159.401748,62.3159431 159.401748,64.5399489 L159.401748,68.2349507 L157.327245,68.2349507 L157.327245,59.4877782 Z M167.058068,68.4100693 C165.256064,68.4100693 163.867202,67.3768698 163.867202,65.5468807 C163.867202,63.6468442 165.396708,63.0164174 167.365728,63.0164174 L169.651197,63.0164174 C169.651197,61.9044144 169.053459,61.1689165 167.919514,61.1689165 C166.908634,61.1689165 166.231783,61.7643196 165.853802,62.4035024 L164.210023,61.221452 C165.053888,60.0744254 166.170252,59.3039037 167.901934,59.3039037 C170.292886,59.3039037 171.699328,60.7924115 171.699328,62.9288581 L171.699328,68.2349507 L169.932485,68.2349507 L169.791841,66.982853 C169.035878,68.077344 168.10411,68.4100693 167.058068,68.4100693 Z M167.365728,66.606348 C168.587575,66.606348 169.616036,65.6519518 169.651197,64.5574608 L167.488791,64.5574608 C166.513072,64.5574608 166.064768,65.0653046 166.064768,65.6169281 C166.064768,66.1948194 166.530653,66.606348 167.365728,66.606348 Z M173.984797,59.4877782 L176.07688,59.4877782 L176.07688,60.9587742 C176.454862,59.8993068 177.448162,59.3039037 178.432671,59.3039037 C179.012829,59.3039037 179.294117,59.4002189 179.408391,59.4264867 L179.408391,61.5454214 C179.197424,61.466618 179.012829,61.3878147 178.432671,61.3878147 C177.430581,61.3878147 176.0593,62.3159431 176.0593,64.5399489 L176.0593,68.2349507 L173.984797,68.2349507 L173.984797,59.4877782 Z M183.750782,67.9985407 L180.313788,59.4877782 L182.669579,59.4877782 L184.884726,65.5643926 L187.135034,59.4877782 L189.490825,59.4877782 L184.471584,72 L182.133373,72 L183.750782,67.9985407 Z" id="LogoSmall"></path>
        </g>
    </g>
</svg>