<?xml version="1.0" encoding="UTF-8"?>
<svg width="670px" height="93px" viewBox="0 0 670 93" version="1.1" xmlns="http://www.w3.org/2000/svg" xmlns:xlink="http://www.w3.org/1999/xlink">
    <!-- Generator: Sketch 51.3 (57544) - http://www.bohemiancoding.com/sketch -->
    <title>HeroImage</title>
    <desc>Created with Sketch.</desc>
    <defs></defs>
    <g id="Front-page" stroke="none" stroke-width="1" fill="none" fill-rule="evenodd">
        <g id="Desktop-HD" transform="translate(-351.000000, -138.000000)">
            <g id="HeroImage" transform="translate(351.000000, 138.000000)">
                <rect id="Rectangle-2" fill="#FFFFFF" opacity="0.766350446" x="69" y="35" width="143" height="10" rx="5"></rect>
                <rect id="Rectangle-2-Copy" fill="#FFFFFF" opacity="0.766350446" x="554" y="40" width="66" height="10" rx="5"></rect>
                <rect id="Rectangle-2" fill="#FFFFFF" opacity="0.766350446" x="69" y="52" width="313" height="5" rx="2.5"></rect>
                <rect id="Rectangle" stroke="#FFFFFF" x="20" y="17" width="626" height="58" rx="5"></rect>
                <g id="Group-5" transform="translate(33.000000, 34.000000)" fill="#FFFFFF">
                    <g id="star_recommendation.svg" fill-rule="nonzero">
                        <path d="M12.7122546,0.166073827 C12.3603556,-0.0162199674 11.9491467,-0.0499851484 11.5717959,0.0724284989 C11.1944452,0.194842146 10.8828945,0.463072571 10.7077323,0.816346503 L8.12587065,5.96357529 C7.91046839,6.39605809 7.49420822,6.69574782 7.01276035,6.76496768 L1.2716977,7.57551883 C0.713396583,7.65508968 0.248992655,8.04186316 0.0735703448,8.57336543 C-0.101851966,9.1048677 0.0420969348,9.68902304 0.444947728,10.0804425 L4.60179116,14.1240394 C4.94812738,14.4632257 5.10511541,14.9489943 5.02209422,15.4245848 L4.0244518,21.112181 C3.90946089,21.7475342 4.22867912,22.3823959 4.80963333,22.6737513 C5.23287752,22.8960131 5.73967262,22.8960131 6.16291681,22.6737513 L11.3035465,20.0039698 C11.7292014,19.7848389 12.2357938,19.7848389 12.6614487,20.0039698 L17.7882223,22.705807 C18.2863972,22.9581755 18.8855899,22.9100367 19.3362851,22.5814366 C19.7869802,22.2528365 20.0119257,21.7000994 19.9174499,21.1533955 L18.9567572,15.4612199 C18.8760884,14.9840899 19.0366074,14.4980771 19.3862976,14.1606745 L23.5431411,10.1445538 C23.9517001,9.7574084 24.1018276,9.17315867 23.9299063,8.63938372 C23.757985,8.10560877 23.2941159,7.71576499 22.734866,7.63505084 L16.998422,6.7878646 C16.5177333,6.71628077 16.1032749,6.41493273 15.8899304,5.98189283 L13.3403998,0.798028963 C13.2029211,0.514348674 12.975911,0.282840878 12.6937797,0.138597516 L12.7122546,0.166073827 Z M12.0148286,1.45288102 L14.5597405,6.62758613 C14.8349872,7.20579379 15.2920328,7.67983763 15.8622182,7.97850472 C16.1516595,8.12619269 16.4638143,8.22523165 16.7859611,8.27158536 L22.5224051,9.11877159 L18.3655616,13.1348923 C17.6669553,13.8082737 17.3459204,14.7785791 17.5064807,15.7314036 L18.4671734,21.4235792 L13.3403998,18.721742 C12.456759,18.2834801 11.4435742,18.2834801 10.5922644,18.721742 L5.45163471,21.3915235 L6.44927713,15.7039273 C6.61772769,14.7511996 6.30351064,13.7772048 5.60867102,13.0982572 L1.45182758,9.0546602 L7.21598381,8.25326782 C8.17994795,8.11795604 9.01459347,7.52000398 9.44682312,6.65506244 L12.0148286,1.45288102 Z" id="Shape"></path>
                    </g>
                    <polygon id="Star" opacity="0.56875" points="11.9916561 15.4949128 8.28860896 17.4473792 8.99582803 13.311989 6 10.3832894 10.1401325 9.77994413 11.9916561 6.01744186 13.8431796 9.77994413 17.9833121 10.3832894 14.9874841 13.311989 15.6947031 17.4473792"></polygon>
                </g>
                <path d="M12.25,0 L12.25,95.0199966" id="Line" stroke="#FFFFFF" stroke-linecap="square" stroke-dasharray="5,3"></path>
                <path d="M654.25,0 L654.25,95.0199966" id="Line-Copy" stroke="#FFFFFF" stroke-linecap="square" stroke-dasharray="5,3"></path>
                <rect id="Rectangle-3" stroke="#FFFFFF" stroke-width="2" opacity="0.586886161" fill-rule="nonzero" x="541" y="32" width="91" height="26" rx="4"></rect>
                <path d="M0.5,10.5 L672.5,10.5" id="Line" stroke="#FFFFFF" stroke-linecap="square" stroke-dasharray="5,3"></path>
                <path d="M0.5,81.5 L668.5,81.5" id="Line" stroke="#FFFFFF" stroke-linecap="square" stroke-dasharray="5,3"></path>
            </g>
        </g>
    </g>
</svg>